<?xml version="1.0" encoding="utf-8"?>
<!-- Generator: Adobe Illustrator 21.0.2, SVG Export Plug-In . SVG Version: 6.00 Build 0)  -->
<svg version="1.1" id="Layer_1" xmlns="http://www.w3.org/2000/svg" xmlns:xlink="http://www.w3.org/1999/xlink" x="0px" y="0px"
	 viewBox="0 0 24.8 24.8" style="enable-background:new 0 0 24.8 24.8;" xml:space="preserve">
<style type="text/css">
	.st0{fill:#293033;}
	.st1{clip-path:url(#SVGID_3_);fill:#293033;}
</style>
<g>
	<g>
		<path id="SVGID_1_" class="st0" d="M12.4,23.2c3,0,5.6-1.1,7.7-3.2c2.1-2.1,3.2-4.7,3.2-7.7s-1.1-5.6-3.2-7.7s-4.7-3.2-7.7-3.2
			S6.8,2.5,4.7,4.6c-2.1,2.2-3.1,4.7-3.1,7.7s1.1,5.6,3.2,7.7S9.4,23.2,12.4,23.2z M12.4,0c3.4,0,6.3,1.2,8.8,3.6
			c2.4,2.4,3.6,5.3,3.6,8.8s-1.2,6.3-3.6,8.8c-2.4,2.4-5.3,3.6-8.8,3.6s-6.3-1.2-8.8-3.6C1.1,18.8,0,15.9,0,12.4s1.2-6.3,3.6-8.8
			C6.1,1.2,9,0,12.4,0z"/>
	</g>
	<g>
		<defs>
			<path id="SVGID_2_" d="M12.4,23.2c3,0,5.6-1.1,7.7-3.2c2.1-2.1,3.2-4.7,3.2-7.7s-1.1-5.6-3.2-7.7s-4.7-3.2-7.7-3.2
				S6.8,2.5,4.7,4.6c-2.1,2.2-3.1,4.7-3.1,7.7s1.1,5.6,3.2,7.7S9.4,23.2,12.4,23.2z M12.4,0c3.4,0,6.3,1.2,8.8,3.6
				c2.4,2.4,3.6,5.3,3.6,8.8s-1.2,6.3-3.6,8.8c-2.4,2.4-5.3,3.6-8.8,3.6s-6.3-1.2-8.8-3.6C1.1,18.8,0,15.9,0,12.4s1.2-6.3,3.6-8.8
				C6.1,1.2,9,0,12.4,0z"/>
		</defs>
		<clipPath id="SVGID_3_">
			<use xlink:href="#SVGID_2_"  style="overflow:visible;"/>
		</clipPath>
		<rect x="-9.5" y="-9.6" class="st1" width="43.8" height="43.8"/>
	</g>
</g>
<g id="I" transform="translate(13.000000, 6.000000)">
	<path id="Fill-4-Copy" class="st0" d="M-2.1,9.3c0-0.3,0-0.5,0-1c0-1.3,0-1.8,0-2.5c0-0.9,0.6-1.7,1.5-1.7c0.8,0,1.5,0.7,1.5,1.5
		c0,2.4,0,4.9,0,7.4c0,0.9-0.6,1.5-1.5,1.5c-0.8,0-1.4-0.7-1.5-1.6c0-0.7,0-1.3,0-2.6c0-0.1,0-0.1,0-0.2c0-0.1,0-0.2,0-0.3L-2.1,9.3
		z"/>
	<path id="Fill-6-Copy" class="st0" d="M-0.6,2c-0.9,0-1.5-0.6-1.5-1.5c0-0.9,0.6-1.5,1.5-1.5c0.9,0,1.5,0.6,1.5,1.5
		C0.9,1.4,0.3,2-0.6,2z"/>
</g>
</svg>
