<?xml version="1.0" encoding="utf-8"?>
<!-- Generator: Adobe Illustrator 21.0.2, SVG Export Plug-In . SVG Version: 6.00 Build 0)  -->
<svg version="1.1" id="Layer_1" xmlns="http://www.w3.org/2000/svg"  x="0px" y="0px"
	 viewBox="0 0 30 30" width="19" height="19" style="enable-background:new 0 0 30 30;" xml:space="preserve">
<style type="text/css">
	.st0{fill:#FF1616;}
	.st1{fill:#FFFFFF;}
</style>
<title>Alert_Icons_Error Red</title>
<desc>Created with Sketch.</desc>
<g id="Symbols">
	<g id="Alert_Icons_Error-Red">
		<path id="Fill-1" class="st0" d="M3.9,27c-1.6,0-3.3-1.2-3.7-2.7c-0.4-1.2-0.3-2.4,0.4-3.6C4.2,14.5,7.9,8.3,11.5,2.1
			c0.7-1.2,1.7-1.9,3-2c1.6-0.2,2.9,0.6,3.8,2c1.3,2.2,2.6,4.4,3.9,6.6c2.4,4.1,4.7,8.1,7.1,12.2c0.6,1.1,0.8,2.2,0.4,3.4
			c-0.4,1.6-1.6,2.4-3.2,2.8C26.4,27,26.2,27,26,27c-3.6,0-7.3,0-10.9,0C11.3,27,7.6,27,3.9,27z"/>
		<path id="Combined-Shape" class="st1" d="M13.5,12.4c0,0.3,0,0.5,0,1.1c0,1.3,0,1.9,0,2.6c0,1,0.6,1.7,1.5,1.7
			c0.8,0,1.5-0.7,1.5-1.6c0-2.5,0-5.1,0-7.6C16.5,7.7,15.8,7,15,7c-0.9,0-1.5,0.7-1.5,1.6c0,0.8,0,1.4,0,2.7c0,0.1,0,0.1,0,0.2
			c0,0.1,0,0.2,0,0.3L13.5,12.4z M15,20c-0.9,0-1.5,0.6-1.5,1.5c0,0.9,0.6,1.5,1.5,1.5c0.9,0,1.5-0.6,1.5-1.5
			C16.5,20.6,15.9,20,15,20z"/>
	</g>
</g>
</svg>