<?xml version="1.0" encoding="utf-8"?>
<svg version="1.1" id="Layer_1" xmlns="http://www.w3.org/2000/svg"  x="0px" y="0px"
	 viewBox="0 0 30 30" height="18" width="18" style="enable-background:new 0 0 30 30;" xml:space="preserve">
<style type="text/css">
	.st0{fill:#008A25;}
	.st1{fill:#FFFFFF;}
</style>
<title>Alert_Icons_Success Green</title>
<desc>Created with Sketch.</desc>
<g id="Symbols">
	<g id="Alert_Icons_Success-Green">
		<circle id="Oval-3" class="st0" cx="15" cy="15" r="15"/>
		<path id="Fill-4-Copy" class="st1" d="M19.8,11l0.1-0.1c0.5-0.5,0.5-0.5,1-1.1c0,0,0,0,0,0c0.1-0.1,0.2-0.2,0.3-0.3
			C21.8,9.1,22.4,9,23,9.3c0.5,0.3,0.8,0.8,0.9,1.4c0,0.4-0.1,0.8-0.4,1.1c-0.1,0.1-0.1,0.1-0.2,0.2c0,0,0,0,0,0
			c-2.8,2.9-5.7,6-8.7,9.1c-0.8,0.9-1.8,0.9-2.6,0c-0.3-0.4-0.6-0.6-1.2-1.3c-1.5-1.6-2.2-2.3-3.1-3.2C7.2,16.3,7,15.7,7.2,15
			c0.3-1.1,1.6-1.5,2.6-0.8c0.1,0.1,0.1,0.1,0.2,0.2c0,0,0,0,0,0c0.2,0.2,0.4,0.4,0.8,0.8c1.2,1.2,1.8,1.9,2.4,2.6
			C15,16,16.6,14.3,19.8,11z"/>
	</g>
</g>
</svg>